<mxfile host="app.diagrams.net" modified="2023-12-05T15:17:26.209Z" agent="Mozilla/5.0 (Windows NT 10.0; Win64; x64; rv:120.0) Gecko/20100101 Firefox/120.0" etag="SqUAiVQnGXOxt4Wfm3iX" version="22.1.5" type="device">
  <diagram id="prtHgNgQTEPvFCAcTncT" name="Page-1">
    <mxGraphModel dx="1960" dy="2394" grid="1" gridSize="10" guides="1" tooltips="1" connect="1" arrows="1" fold="1" page="1" pageScale="1" pageWidth="827" pageHeight="1169" math="0" shadow="0">
      <root>
        <mxCell id="0" />
        <mxCell id="1" parent="0" />
        <mxCell id="TaBurYHqSm6imL810wM_-1" value="Клиент" style="swimlane;startSize=20;horizontal=0;html=1;whiteSpace=wrap;" parent="1" vertex="1">
          <mxGeometry x="170" y="110" width="1920" height="300" as="geometry" />
        </mxCell>
        <mxCell id="TaBurYHqSm6imL810wM_-12" style="edgeStyle=orthogonalEdgeStyle;rounded=0;orthogonalLoop=1;jettySize=auto;html=1;" parent="TaBurYHqSm6imL810wM_-1" source="TaBurYHqSm6imL810wM_-6" edge="1">
          <mxGeometry relative="1" as="geometry">
            <mxPoint x="160.00000000000023" y="150" as="targetPoint" />
          </mxGeometry>
        </mxCell>
        <mxCell id="TaBurYHqSm6imL810wM_-6" value="" style="points=[[0.145,0.145,0],[0.5,0,0],[0.855,0.145,0],[1,0.5,0],[0.855,0.855,0],[0.5,1,0],[0.145,0.855,0],[0,0.5,0]];shape=mxgraph.bpmn.event;html=1;verticalLabelPosition=bottom;labelBackgroundColor=#ffffff;verticalAlign=top;align=center;perimeter=ellipsePerimeter;outlineConnect=0;aspect=fixed;outline=standard;symbol=general;" parent="TaBurYHqSm6imL810wM_-1" vertex="1">
          <mxGeometry x="55" y="125" width="50" height="50" as="geometry" />
        </mxCell>
        <mxCell id="TaBurYHqSm6imL810wM_-7" value="Клиент заполнил заявку" style="text;html=1;strokeColor=none;fillColor=none;align=center;verticalAlign=middle;whiteSpace=wrap;rounded=0;" parent="TaBurYHqSm6imL810wM_-1" vertex="1">
          <mxGeometry x="30" y="175" width="100" height="80" as="geometry" />
        </mxCell>
        <mxCell id="TaBurYHqSm6imL810wM_-41" style="edgeStyle=orthogonalEdgeStyle;rounded=0;orthogonalLoop=1;jettySize=auto;html=1;" parent="TaBurYHqSm6imL810wM_-1" target="TaBurYHqSm6imL810wM_-40" edge="1">
          <mxGeometry relative="1" as="geometry">
            <mxPoint x="280.0000000000002" y="150" as="sourcePoint" />
          </mxGeometry>
        </mxCell>
        <mxCell id="TaBurYHqSm6imL810wM_-40" value="&lt;div&gt;Выбрать способ получения карты и нажать &quot;Продолжить&quot;&lt;/div&gt;" style="points=[[0.25,0,0],[0.5,0,0],[0.75,0,0],[1,0.25,0],[1,0.5,0],[1,0.75,0],[0.75,1,0],[0.5,1,0],[0.25,1,0],[0,0.75,0],[0,0.5,0],[0,0.25,0]];shape=mxgraph.bpmn.task;whiteSpace=wrap;rectStyle=rounded;size=10;html=1;container=1;expand=0;collapsible=0;taskMarker=abstract;" parent="TaBurYHqSm6imL810wM_-1" vertex="1">
          <mxGeometry x="650" y="110" width="120" height="80" as="geometry" />
        </mxCell>
        <mxCell id="QeJ1SCM4byZtXH57LW_v-6" value="" style="points=[[0.25,0.25,0],[0.5,0,0],[0.75,0.25,0],[1,0.5,0],[0.75,0.75,0],[0.5,1,0],[0.25,0.75,0],[0,0.5,0]];shape=mxgraph.bpmn.gateway2;html=1;verticalLabelPosition=bottom;labelBackgroundColor=#ffffff;verticalAlign=top;align=center;perimeter=rhombusPerimeter;outlineConnect=0;outline=none;symbol=none;" vertex="1" parent="TaBurYHqSm6imL810wM_-1">
          <mxGeometry x="840" y="125" width="50" height="50" as="geometry" />
        </mxCell>
        <mxCell id="QeJ1SCM4byZtXH57LW_v-7" style="edgeStyle=orthogonalEdgeStyle;rounded=0;orthogonalLoop=1;jettySize=auto;html=1;entryX=0;entryY=0.5;entryDx=0;entryDy=0;entryPerimeter=0;" edge="1" parent="TaBurYHqSm6imL810wM_-1" source="TaBurYHqSm6imL810wM_-40" target="QeJ1SCM4byZtXH57LW_v-6">
          <mxGeometry relative="1" as="geometry" />
        </mxCell>
        <mxCell id="QeJ1SCM4byZtXH57LW_v-9" value="Выбрать офис для получения карты" style="points=[[0.25,0,0],[0.5,0,0],[0.75,0,0],[1,0.25,0],[1,0.5,0],[1,0.75,0],[0.75,1,0],[0.5,1,0],[0.25,1,0],[0,0.75,0],[0,0.5,0],[0,0.25,0]];shape=mxgraph.bpmn.task;whiteSpace=wrap;rectStyle=rounded;size=10;html=1;container=1;expand=0;collapsible=0;taskMarker=abstract;" vertex="1" parent="TaBurYHqSm6imL810wM_-1">
          <mxGeometry x="940" y="20" width="120" height="80" as="geometry" />
        </mxCell>
        <mxCell id="QeJ1SCM4byZtXH57LW_v-11" style="edgeStyle=orthogonalEdgeStyle;rounded=0;orthogonalLoop=1;jettySize=auto;html=1;entryX=0;entryY=0.5;entryDx=0;entryDy=0;entryPerimeter=0;exitX=0.5;exitY=0;exitDx=0;exitDy=0;exitPerimeter=0;" edge="1" parent="TaBurYHqSm6imL810wM_-1" source="QeJ1SCM4byZtXH57LW_v-6" target="QeJ1SCM4byZtXH57LW_v-9">
          <mxGeometry relative="1" as="geometry">
            <Array as="points">
              <mxPoint x="865" y="60" />
            </Array>
          </mxGeometry>
        </mxCell>
        <mxCell id="QeJ1SCM4byZtXH57LW_v-12" value="" style="edgeStyle=elbowEdgeStyle;fontSize=12;html=1;endArrow=blockThin;endFill=1;startArrow=dash;startFill=0;endSize=6;startSize=6;rounded=0;exitX=0.5;exitY=1;exitDx=0;exitDy=0;exitPerimeter=0;entryX=0;entryY=0.5;entryDx=0;entryDy=0;entryPerimeter=0;" edge="1" parent="TaBurYHqSm6imL810wM_-1" source="QeJ1SCM4byZtXH57LW_v-6" target="QeJ1SCM4byZtXH57LW_v-13">
          <mxGeometry width="160" relative="1" as="geometry">
            <mxPoint x="860" y="240" as="sourcePoint" />
            <mxPoint x="1020" y="240" as="targetPoint" />
            <Array as="points">
              <mxPoint x="865" y="210" />
            </Array>
          </mxGeometry>
        </mxCell>
        <mxCell id="QeJ1SCM4byZtXH57LW_v-13" value="Заполнить необходимые поля для доставки и нажать &quot;Заказать доставку&quot;" style="points=[[0.25,0,0],[0.5,0,0],[0.75,0,0],[1,0.25,0],[1,0.5,0],[1,0.75,0],[0.75,1,0],[0.5,1,0],[0.25,1,0],[0,0.75,0],[0,0.5,0],[0,0.25,0]];shape=mxgraph.bpmn.task;whiteSpace=wrap;rectStyle=rounded;size=10;html=1;container=1;expand=0;collapsible=0;taskMarker=abstract;" vertex="1" parent="TaBurYHqSm6imL810wM_-1">
          <mxGeometry x="980" y="175" width="120" height="80" as="geometry" />
        </mxCell>
        <mxCell id="QeJ1SCM4byZtXH57LW_v-15" value="" style="points=[[0.145,0.145,0],[0.5,0,0],[0.855,0.145,0],[1,0.5,0],[0.855,0.855,0],[0.5,1,0],[0.145,0.855,0],[0,0.5,0]];shape=mxgraph.bpmn.event;html=1;verticalLabelPosition=bottom;labelBackgroundColor=#ffffff;verticalAlign=top;align=center;perimeter=ellipsePerimeter;outlineConnect=0;aspect=fixed;outline=end;symbol=terminate2;" vertex="1" parent="TaBurYHqSm6imL810wM_-1">
          <mxGeometry x="1100" y="35" width="50" height="50" as="geometry" />
        </mxCell>
        <mxCell id="QeJ1SCM4byZtXH57LW_v-16" style="edgeStyle=orthogonalEdgeStyle;rounded=0;orthogonalLoop=1;jettySize=auto;html=1;entryX=0;entryY=0.5;entryDx=0;entryDy=0;entryPerimeter=0;" edge="1" parent="TaBurYHqSm6imL810wM_-1" source="QeJ1SCM4byZtXH57LW_v-9" target="QeJ1SCM4byZtXH57LW_v-15">
          <mxGeometry relative="1" as="geometry" />
        </mxCell>
        <mxCell id="QeJ1SCM4byZtXH57LW_v-18" value="Доставка курьером?" style="text;html=1;strokeColor=none;fillColor=none;align=center;verticalAlign=middle;whiteSpace=wrap;rounded=0;" vertex="1" parent="TaBurYHqSm6imL810wM_-1">
          <mxGeometry x="860" y="175" width="80" height="30" as="geometry" />
        </mxCell>
        <mxCell id="QeJ1SCM4byZtXH57LW_v-20" value="Нет" style="text;html=1;strokeColor=none;fillColor=none;align=center;verticalAlign=middle;whiteSpace=wrap;rounded=0;" vertex="1" parent="TaBurYHqSm6imL810wM_-1">
          <mxGeometry x="860" y="30" width="80" height="30" as="geometry" />
        </mxCell>
        <mxCell id="QeJ1SCM4byZtXH57LW_v-21" value="Да" style="text;html=1;strokeColor=none;fillColor=none;align=center;verticalAlign=middle;whiteSpace=wrap;rounded=0;" vertex="1" parent="TaBurYHqSm6imL810wM_-1">
          <mxGeometry x="860" y="225" width="80" height="30" as="geometry" />
        </mxCell>
        <mxCell id="QeJ1SCM4byZtXH57LW_v-22" value="Карта заказана" style="text;html=1;strokeColor=none;fillColor=none;align=center;verticalAlign=middle;whiteSpace=wrap;rounded=0;" vertex="1" parent="TaBurYHqSm6imL810wM_-1">
          <mxGeometry x="1085" y="95" width="80" height="30" as="geometry" />
        </mxCell>
        <mxCell id="QeJ1SCM4byZtXH57LW_v-33" value="Нажать кнопку &quot;Продолжить" style="points=[[0.25,0,0],[0.5,0,0],[0.75,0,0],[1,0.25,0],[1,0.5,0],[1,0.75,0],[0.75,1,0],[0.5,1,0],[0.25,1,0],[0,0.75,0],[0,0.5,0],[0,0.25,0]];shape=mxgraph.bpmn.task;whiteSpace=wrap;rectStyle=rounded;size=10;html=1;container=1;expand=0;collapsible=0;taskMarker=send;" vertex="1" parent="TaBurYHqSm6imL810wM_-1">
          <mxGeometry x="160" y="110" width="120" height="80" as="geometry" />
        </mxCell>
        <mxCell id="QeJ1SCM4byZtXH57LW_v-39" value="Ожидание смс от системы" style="text;html=1;strokeColor=none;fillColor=none;align=center;verticalAlign=middle;whiteSpace=wrap;rounded=0;" vertex="1" parent="TaBurYHqSm6imL810wM_-1">
          <mxGeometry x="1130" y="270" width="110" height="30" as="geometry" />
        </mxCell>
        <mxCell id="QeJ1SCM4byZtXH57LW_v-54" value="" style="points=[[0.145,0.145,0],[0.5,0,0],[0.855,0.145,0],[1,0.5,0],[0.855,0.855,0],[0.5,1,0],[0.145,0.855,0],[0,0.5,0]];shape=mxgraph.bpmn.event;html=1;verticalLabelPosition=bottom;labelBackgroundColor=#ffffff;verticalAlign=top;align=center;perimeter=ellipsePerimeter;outlineConnect=0;aspect=fixed;outline=boundInt;symbol=timer;" vertex="1" parent="TaBurYHqSm6imL810wM_-1">
          <mxGeometry x="1270" y="190" width="50" height="50" as="geometry" />
        </mxCell>
        <mxCell id="QeJ1SCM4byZtXH57LW_v-55" value="Ожидание звонка курьера" style="text;html=1;strokeColor=none;fillColor=none;align=center;verticalAlign=middle;whiteSpace=wrap;rounded=0;" vertex="1" parent="TaBurYHqSm6imL810wM_-1">
          <mxGeometry x="1240" y="270" width="110" height="30" as="geometry" />
        </mxCell>
        <mxCell id="QeJ1SCM4byZtXH57LW_v-58" value="" style="points=[[0.25,0.25,0],[0.5,0,0],[0.75,0.25,0],[1,0.5,0],[0.75,0.75,0],[0.5,1,0],[0.25,0.75,0],[0,0.5,0]];shape=mxgraph.bpmn.gateway2;html=1;verticalLabelPosition=bottom;labelBackgroundColor=#ffffff;verticalAlign=top;align=center;perimeter=rhombusPerimeter;outlineConnect=0;outline=none;symbol=none;" vertex="1" parent="TaBurYHqSm6imL810wM_-1">
          <mxGeometry x="1360" y="190" width="50" height="50" as="geometry" />
        </mxCell>
        <mxCell id="QeJ1SCM4byZtXH57LW_v-59" style="edgeStyle=orthogonalEdgeStyle;rounded=0;orthogonalLoop=1;jettySize=auto;html=1;entryX=0;entryY=0.5;entryDx=0;entryDy=0;entryPerimeter=0;" edge="1" parent="TaBurYHqSm6imL810wM_-1" source="QeJ1SCM4byZtXH57LW_v-54" target="QeJ1SCM4byZtXH57LW_v-58">
          <mxGeometry relative="1" as="geometry" />
        </mxCell>
        <mxCell id="QeJ1SCM4byZtXH57LW_v-60" value="Отказаться от встречи с курьером" style="points=[[0.25,0,0],[0.5,0,0],[0.75,0,0],[1,0.25,0],[1,0.5,0],[1,0.75,0],[0.75,1,0],[0.5,1,0],[0.25,1,0],[0,0.75,0],[0,0.5,0],[0,0.25,0]];shape=mxgraph.bpmn.task;whiteSpace=wrap;rectStyle=rounded;size=10;html=1;container=1;expand=0;collapsible=0;taskMarker=abstract;" vertex="1" parent="TaBurYHqSm6imL810wM_-1">
          <mxGeometry x="1470" y="205" width="120" height="80" as="geometry" />
        </mxCell>
        <mxCell id="QeJ1SCM4byZtXH57LW_v-61" value="Дать подтверждение на встречу" style="points=[[0.25,0,0],[0.5,0,0],[0.75,0,0],[1,0.25,0],[1,0.5,0],[1,0.75,0],[0.75,1,0],[0.5,1,0],[0.25,1,0],[0,0.75,0],[0,0.5,0],[0,0.25,0]];shape=mxgraph.bpmn.task;whiteSpace=wrap;rectStyle=rounded;size=10;html=1;container=1;expand=0;collapsible=0;taskMarker=abstract;" vertex="1" parent="TaBurYHqSm6imL810wM_-1">
          <mxGeometry x="1460" y="85" width="120" height="80" as="geometry" />
        </mxCell>
        <mxCell id="QeJ1SCM4byZtXH57LW_v-66" value="" style="edgeStyle=elbowEdgeStyle;fontSize=12;html=1;endArrow=blockThin;endFill=1;startArrow=dash;startFill=0;endSize=6;startSize=6;rounded=0;exitX=0.5;exitY=0;exitDx=0;exitDy=0;exitPerimeter=0;entryX=0;entryY=0.5;entryDx=0;entryDy=0;entryPerimeter=0;" edge="1" parent="TaBurYHqSm6imL810wM_-1" source="QeJ1SCM4byZtXH57LW_v-58" target="QeJ1SCM4byZtXH57LW_v-61">
          <mxGeometry width="160" relative="1" as="geometry">
            <mxPoint x="1400" y="160" as="sourcePoint" />
            <mxPoint x="1560" y="160" as="targetPoint" />
            <Array as="points">
              <mxPoint x="1385" y="140" />
            </Array>
          </mxGeometry>
        </mxCell>
        <mxCell id="QeJ1SCM4byZtXH57LW_v-67" value="" style="points=[[0.145,0.145,0],[0.5,0,0],[0.855,0.145,0],[1,0.5,0],[0.855,0.855,0],[0.5,1,0],[0.145,0.855,0],[0,0.5,0]];shape=mxgraph.bpmn.event;html=1;verticalLabelPosition=bottom;labelBackgroundColor=#ffffff;verticalAlign=top;align=center;perimeter=ellipsePerimeter;outlineConnect=0;aspect=fixed;outline=end;symbol=terminate2;" vertex="1" parent="TaBurYHqSm6imL810wM_-1">
          <mxGeometry x="1650" y="220" width="50" height="50" as="geometry" />
        </mxCell>
        <mxCell id="QeJ1SCM4byZtXH57LW_v-68" style="edgeStyle=orthogonalEdgeStyle;rounded=0;orthogonalLoop=1;jettySize=auto;html=1;entryX=0;entryY=0.5;entryDx=0;entryDy=0;entryPerimeter=0;" edge="1" parent="TaBurYHqSm6imL810wM_-1" source="QeJ1SCM4byZtXH57LW_v-60" target="QeJ1SCM4byZtXH57LW_v-67">
          <mxGeometry relative="1" as="geometry" />
        </mxCell>
        <mxCell id="QeJ1SCM4byZtXH57LW_v-69" value="Процесс доставки карты закончен, пока клиент не возобновит его" style="text;html=1;strokeColor=none;fillColor=none;align=center;verticalAlign=middle;whiteSpace=wrap;rounded=0;" vertex="1" parent="TaBurYHqSm6imL810wM_-1">
          <mxGeometry x="1680" y="250" width="190" height="30" as="geometry" />
        </mxCell>
        <mxCell id="QeJ1SCM4byZtXH57LW_v-70" style="edgeStyle=orthogonalEdgeStyle;rounded=0;orthogonalLoop=1;jettySize=auto;html=1;entryX=0;entryY=0.5;entryDx=0;entryDy=0;entryPerimeter=0;" edge="1" parent="TaBurYHqSm6imL810wM_-1" source="QeJ1SCM4byZtXH57LW_v-58" target="QeJ1SCM4byZtXH57LW_v-60">
          <mxGeometry relative="1" as="geometry">
            <Array as="points">
              <mxPoint x="1385" y="245" />
            </Array>
          </mxGeometry>
        </mxCell>
        <mxCell id="QeJ1SCM4byZtXH57LW_v-83" value="Получить карту" style="points=[[0.25,0,0],[0.5,0,0],[0.75,0,0],[1,0.25,0],[1,0.5,0],[1,0.75,0],[0.75,1,0],[0.5,1,0],[0.25,1,0],[0,0.75,0],[0,0.5,0],[0,0.25,0]];shape=mxgraph.bpmn.task;whiteSpace=wrap;rectStyle=rounded;size=10;html=1;container=1;expand=0;collapsible=0;taskMarker=abstract;" vertex="1" parent="TaBurYHqSm6imL810wM_-1">
          <mxGeometry x="1650" y="85" width="120" height="80" as="geometry" />
        </mxCell>
        <mxCell id="QeJ1SCM4byZtXH57LW_v-84" style="edgeStyle=orthogonalEdgeStyle;rounded=0;orthogonalLoop=1;jettySize=auto;html=1;entryX=0;entryY=0.5;entryDx=0;entryDy=0;entryPerimeter=0;" edge="1" parent="TaBurYHqSm6imL810wM_-1" source="QeJ1SCM4byZtXH57LW_v-61" target="QeJ1SCM4byZtXH57LW_v-83">
          <mxGeometry relative="1" as="geometry" />
        </mxCell>
        <mxCell id="QeJ1SCM4byZtXH57LW_v-94" value="" style="points=[[0.145,0.145,0],[0.5,0,0],[0.855,0.145,0],[1,0.5,0],[0.855,0.855,0],[0.5,1,0],[0.145,0.855,0],[0,0.5,0]];shape=mxgraph.bpmn.event;html=1;verticalLabelPosition=bottom;labelBackgroundColor=#ffffff;verticalAlign=top;align=center;perimeter=ellipsePerimeter;outlineConnect=0;aspect=fixed;outline=end;symbol=terminate2;" vertex="1" parent="TaBurYHqSm6imL810wM_-1">
          <mxGeometry x="1840" y="100" width="50" height="50" as="geometry" />
        </mxCell>
        <mxCell id="QeJ1SCM4byZtXH57LW_v-95" style="edgeStyle=orthogonalEdgeStyle;rounded=0;orthogonalLoop=1;jettySize=auto;html=1;entryX=0;entryY=0.5;entryDx=0;entryDy=0;entryPerimeter=0;" edge="1" parent="TaBurYHqSm6imL810wM_-1" source="QeJ1SCM4byZtXH57LW_v-83" target="QeJ1SCM4byZtXH57LW_v-94">
          <mxGeometry relative="1" as="geometry" />
        </mxCell>
        <mxCell id="QeJ1SCM4byZtXH57LW_v-96" value="Карта получена" style="text;html=1;strokeColor=none;fillColor=none;align=center;verticalAlign=middle;whiteSpace=wrap;rounded=0;" vertex="1" parent="TaBurYHqSm6imL810wM_-1">
          <mxGeometry x="1818" y="165" width="80" height="30" as="geometry" />
        </mxCell>
        <mxCell id="TaBurYHqSm6imL810wM_-3" value="Курьер" style="swimlane;startSize=20;horizontal=0;html=1;whiteSpace=wrap;" parent="1" vertex="1">
          <mxGeometry x="1380" y="-50" width="1010" height="140" as="geometry" />
        </mxCell>
        <mxCell id="QeJ1SCM4byZtXH57LW_v-53" style="edgeStyle=orthogonalEdgeStyle;rounded=0;orthogonalLoop=1;jettySize=auto;html=1;" edge="1" parent="TaBurYHqSm6imL810wM_-3" source="QeJ1SCM4byZtXH57LW_v-34" target="QeJ1SCM4byZtXH57LW_v-52">
          <mxGeometry relative="1" as="geometry" />
        </mxCell>
        <mxCell id="QeJ1SCM4byZtXH57LW_v-34" value="" style="points=[[0.145,0.145,0],[0.5,0,0],[0.855,0.145,0],[1,0.5,0],[0.855,0.855,0],[0.5,1,0],[0.145,0.855,0],[0,0.5,0]];shape=mxgraph.bpmn.event;html=1;verticalLabelPosition=bottom;labelBackgroundColor=#ffffff;verticalAlign=top;align=center;perimeter=ellipsePerimeter;outlineConnect=0;aspect=fixed;outline=standard;symbol=message;" vertex="1" parent="TaBurYHqSm6imL810wM_-3">
          <mxGeometry x="70" y="40" width="50" height="50" as="geometry" />
        </mxCell>
        <mxCell id="QeJ1SCM4byZtXH57LW_v-36" value="Получены данные о доставках" style="text;html=1;strokeColor=none;fillColor=none;align=center;verticalAlign=middle;whiteSpace=wrap;rounded=0;" vertex="1" parent="TaBurYHqSm6imL810wM_-3">
          <mxGeometry x="45" y="100" width="100" height="30" as="geometry" />
        </mxCell>
        <mxCell id="QeJ1SCM4byZtXH57LW_v-52" value="Позвонить клиенту и сообщить о встрече" style="points=[[0.25,0,0],[0.5,0,0],[0.75,0,0],[1,0.25,0],[1,0.5,0],[1,0.75,0],[0.75,1,0],[0.5,1,0],[0.25,1,0],[0,0.75,0],[0,0.5,0],[0,0.25,0]];shape=mxgraph.bpmn.task;whiteSpace=wrap;rectStyle=rounded;size=10;html=1;container=1;expand=0;collapsible=0;taskMarker=abstract;isLoopStandard=1;" vertex="1" parent="TaBurYHqSm6imL810wM_-3">
          <mxGeometry x="190" y="25" width="120" height="80" as="geometry" />
        </mxCell>
        <mxCell id="QeJ1SCM4byZtXH57LW_v-72" style="edgeStyle=orthogonalEdgeStyle;rounded=0;orthogonalLoop=1;jettySize=auto;html=1;entryX=0;entryY=0.5;entryDx=0;entryDy=0;entryPerimeter=0;" edge="1" parent="TaBurYHqSm6imL810wM_-3" source="QeJ1SCM4byZtXH57LW_v-52">
          <mxGeometry relative="1" as="geometry">
            <mxPoint x="370" y="65" as="targetPoint" />
          </mxGeometry>
        </mxCell>
        <mxCell id="QeJ1SCM4byZtXH57LW_v-74" value="Подписать с клиентом все необходимые документы" style="points=[[0.25,0,0],[0.5,0,0],[0.75,0,0],[1,0.25,0],[1,0.5,0],[1,0.75,0],[0.75,1,0],[0.5,1,0],[0.25,1,0],[0,0.75,0],[0,0.5,0],[0,0.25,0]];shape=mxgraph.bpmn.task;whiteSpace=wrap;rectStyle=rounded;size=10;html=1;container=1;expand=0;collapsible=0;taskMarker=businessRule;" vertex="1" parent="TaBurYHqSm6imL810wM_-3">
          <mxGeometry x="370" y="25" width="120" height="80" as="geometry" />
        </mxCell>
        <mxCell id="QeJ1SCM4byZtXH57LW_v-81" value="Отдать карту клиенту" style="points=[[0.25,0,0],[0.5,0,0],[0.75,0,0],[1,0.25,0],[1,0.5,0],[1,0.75,0],[0.75,1,0],[0.5,1,0],[0.25,1,0],[0,0.75,0],[0,0.5,0],[0,0.25,0]];shape=mxgraph.bpmn.task;whiteSpace=wrap;rectStyle=rounded;size=10;html=1;container=1;expand=0;collapsible=0;taskMarker=abstract;" vertex="1" parent="TaBurYHqSm6imL810wM_-3">
          <mxGeometry x="540" y="25" width="120" height="80" as="geometry" />
        </mxCell>
        <mxCell id="QeJ1SCM4byZtXH57LW_v-82" style="edgeStyle=orthogonalEdgeStyle;rounded=0;orthogonalLoop=1;jettySize=auto;html=1;entryX=0;entryY=0.5;entryDx=0;entryDy=0;entryPerimeter=0;" edge="1" parent="TaBurYHqSm6imL810wM_-3" source="QeJ1SCM4byZtXH57LW_v-74" target="QeJ1SCM4byZtXH57LW_v-81">
          <mxGeometry relative="1" as="geometry" />
        </mxCell>
        <mxCell id="TaBurYHqSm6imL810wM_-5" value="Система" style="swimlane;startSize=20;horizontal=0;html=1;whiteSpace=wrap;" parent="1" vertex="1">
          <mxGeometry x="240" y="430" width="1770" height="290" as="geometry" />
        </mxCell>
        <mxCell id="TaBurYHqSm6imL810wM_-10" value="" style="points=[[0.145,0.145,0],[0.5,0,0],[0.855,0.145,0],[1,0.5,0],[0.855,0.855,0],[0.5,1,0],[0.145,0.855,0],[0,0.5,0]];shape=mxgraph.bpmn.event;html=1;verticalLabelPosition=bottom;labelBackgroundColor=#ffffff;verticalAlign=top;align=center;perimeter=ellipsePerimeter;outlineConnect=0;aspect=fixed;outline=standard;symbol=message;" parent="TaBurYHqSm6imL810wM_-5" vertex="1">
          <mxGeometry x="75" y="145" width="50" height="50" as="geometry" />
        </mxCell>
        <mxCell id="TaBurYHqSm6imL810wM_-11" value="Клиент отправил форму" style="text;html=1;strokeColor=none;fillColor=none;align=center;verticalAlign=middle;whiteSpace=wrap;rounded=0;" parent="TaBurYHqSm6imL810wM_-5" vertex="1">
          <mxGeometry x="60" y="199.5" width="80" height="40" as="geometry" />
        </mxCell>
        <mxCell id="TaBurYHqSm6imL810wM_-14" value="" style="points=[[0.25,0.25,0],[0.5,0,0],[0.75,0.25,0],[1,0.5,0],[0.75,0.75,0],[0.5,1,0],[0.25,0.75,0],[0,0.5,0]];shape=mxgraph.bpmn.gateway2;html=1;verticalLabelPosition=bottom;labelBackgroundColor=#ffffff;verticalAlign=top;align=center;perimeter=rhombusPerimeter;outlineConnect=0;outline=none;symbol=none;" parent="TaBurYHqSm6imL810wM_-5" vertex="1">
          <mxGeometry x="174" y="145" width="50" height="50" as="geometry" />
        </mxCell>
        <mxCell id="TaBurYHqSm6imL810wM_-15" style="edgeStyle=orthogonalEdgeStyle;rounded=0;orthogonalLoop=1;jettySize=auto;html=1;entryX=0;entryY=0.5;entryDx=0;entryDy=0;entryPerimeter=0;" parent="TaBurYHqSm6imL810wM_-5" source="TaBurYHqSm6imL810wM_-10" target="TaBurYHqSm6imL810wM_-14" edge="1">
          <mxGeometry relative="1" as="geometry" />
        </mxCell>
        <mxCell id="TaBurYHqSm6imL810wM_-16" value="Заполнены верно все необходимые поля?" style="text;html=1;strokeColor=none;fillColor=none;align=center;verticalAlign=middle;whiteSpace=wrap;rounded=0;" parent="TaBurYHqSm6imL810wM_-5" vertex="1">
          <mxGeometry x="149" y="199.5" width="100" height="55" as="geometry" />
        </mxCell>
        <mxCell id="TaBurYHqSm6imL810wM_-21" value="" style="points=[[0.25,0.25,0],[0.5,0,0],[0.75,0.25,0],[1,0.5,0],[0.75,0.75,0],[0.5,1,0],[0.25,0.75,0],[0,0.5,0]];shape=mxgraph.bpmn.gateway2;html=1;verticalLabelPosition=bottom;labelBackgroundColor=#ffffff;verticalAlign=top;align=center;perimeter=rhombusPerimeter;outlineConnect=0;outline=none;symbol=none;" parent="TaBurYHqSm6imL810wM_-5" vertex="1">
          <mxGeometry x="430" y="145" width="50" height="50" as="geometry" />
        </mxCell>
        <mxCell id="TaBurYHqSm6imL810wM_-28" style="edgeStyle=orthogonalEdgeStyle;rounded=0;orthogonalLoop=1;jettySize=auto;html=1;entryX=0;entryY=0.5;entryDx=0;entryDy=0;entryPerimeter=0;" parent="TaBurYHqSm6imL810wM_-5" source="TaBurYHqSm6imL810wM_-21" edge="1">
          <mxGeometry relative="1" as="geometry">
            <mxPoint x="530" y="170.00000000000045" as="targetPoint" />
          </mxGeometry>
        </mxCell>
        <mxCell id="TaBurYHqSm6imL810wM_-29" value="Подсветить неправильно заполненные поля" style="points=[[0.25,0,0],[0.5,0,0],[0.75,0,0],[1,0.25,0],[1,0.5,0],[1,0.75,0],[0.75,1,0],[0.5,1,0],[0.25,1,0],[0,0.75,0],[0,0.5,0],[0,0.25,0]];shape=mxgraph.bpmn.task;whiteSpace=wrap;rectStyle=rounded;size=10;html=1;container=1;expand=0;collapsible=0;taskMarker=abstract;isLoopStandard=1;" parent="TaBurYHqSm6imL810wM_-5" vertex="1">
          <mxGeometry x="270" y="50" width="120" height="80" as="geometry" />
        </mxCell>
        <mxCell id="TaBurYHqSm6imL810wM_-35" style="edgeStyle=orthogonalEdgeStyle;rounded=0;orthogonalLoop=1;jettySize=auto;html=1;entryX=0;entryY=0.5;entryDx=0;entryDy=0;entryPerimeter=0;" parent="TaBurYHqSm6imL810wM_-5" source="TaBurYHqSm6imL810wM_-14" target="TaBurYHqSm6imL810wM_-21" edge="1">
          <mxGeometry relative="1" as="geometry" />
        </mxCell>
        <mxCell id="TaBurYHqSm6imL810wM_-36" style="edgeStyle=orthogonalEdgeStyle;rounded=0;orthogonalLoop=1;jettySize=auto;html=1;entryX=0;entryY=0.5;entryDx=0;entryDy=0;entryPerimeter=0;" parent="TaBurYHqSm6imL810wM_-5" source="TaBurYHqSm6imL810wM_-14" target="TaBurYHqSm6imL810wM_-29" edge="1">
          <mxGeometry relative="1" as="geometry">
            <Array as="points">
              <mxPoint x="199" y="90" />
            </Array>
          </mxGeometry>
        </mxCell>
        <mxCell id="TaBurYHqSm6imL810wM_-37" style="edgeStyle=orthogonalEdgeStyle;rounded=0;orthogonalLoop=1;jettySize=auto;html=1;entryX=0.5;entryY=0;entryDx=0;entryDy=0;entryPerimeter=0;" parent="TaBurYHqSm6imL810wM_-5" source="TaBurYHqSm6imL810wM_-29" target="TaBurYHqSm6imL810wM_-21" edge="1">
          <mxGeometry relative="1" as="geometry" />
        </mxCell>
        <mxCell id="TaBurYHqSm6imL810wM_-38" value="Нет" style="text;html=1;strokeColor=none;fillColor=none;align=center;verticalAlign=middle;whiteSpace=wrap;rounded=0;" parent="TaBurYHqSm6imL810wM_-5" vertex="1">
          <mxGeometry x="190" y="60" width="80" height="30" as="geometry" />
        </mxCell>
        <mxCell id="TaBurYHqSm6imL810wM_-39" value="Да" style="text;html=1;strokeColor=none;fillColor=none;align=center;verticalAlign=middle;whiteSpace=wrap;rounded=0;" parent="TaBurYHqSm6imL810wM_-5" vertex="1">
          <mxGeometry x="224" y="169.5" width="80" height="30" as="geometry" />
        </mxCell>
        <mxCell id="QeJ1SCM4byZtXH57LW_v-2" value="Отобразить страницу &quot;Выбора доставки&quot;" style="points=[[0.25,0,0],[0.5,0,0],[0.75,0,0],[1,0.25,0],[1,0.5,0],[1,0.75,0],[0.75,1,0],[0.5,1,0],[0.25,1,0],[0,0.75,0],[0,0.5,0],[0,0.25,0]];shape=mxgraph.bpmn.task;whiteSpace=wrap;rectStyle=rounded;size=10;html=1;container=1;expand=0;collapsible=0;taskMarker=abstract;" vertex="1" parent="TaBurYHqSm6imL810wM_-5">
          <mxGeometry x="530" y="130" width="120" height="80" as="geometry" />
        </mxCell>
        <mxCell id="QeJ1SCM4byZtXH57LW_v-3" value="Отобразить страницу &quot;Доставки&quot;" style="points=[[0.25,0,0],[0.5,0,0],[0.75,0,0],[1,0.25,0],[1,0.5,0],[1,0.75,0],[0.75,1,0],[0.5,1,0],[0.25,1,0],[0,0.75,0],[0,0.5,0],[0,0.25,0]];shape=mxgraph.bpmn.task;whiteSpace=wrap;rectStyle=rounded;size=10;html=1;container=1;expand=0;collapsible=0;taskMarker=abstract;" vertex="1" parent="TaBurYHqSm6imL810wM_-5">
          <mxGeometry x="690" y="130" width="120" height="80" as="geometry" />
        </mxCell>
        <mxCell id="QeJ1SCM4byZtXH57LW_v-4" style="edgeStyle=orthogonalEdgeStyle;rounded=0;orthogonalLoop=1;jettySize=auto;html=1;entryX=0;entryY=0.5;entryDx=0;entryDy=0;entryPerimeter=0;" edge="1" parent="TaBurYHqSm6imL810wM_-5" source="QeJ1SCM4byZtXH57LW_v-2" target="QeJ1SCM4byZtXH57LW_v-3">
          <mxGeometry relative="1" as="geometry" />
        </mxCell>
        <mxCell id="QeJ1SCM4byZtXH57LW_v-26" style="edgeStyle=orthogonalEdgeStyle;rounded=0;orthogonalLoop=1;jettySize=auto;html=1;entryX=0;entryY=0.5;entryDx=0;entryDy=0;entryPerimeter=0;" edge="1" parent="TaBurYHqSm6imL810wM_-5" source="QeJ1SCM4byZtXH57LW_v-3">
          <mxGeometry relative="1" as="geometry">
            <mxPoint x="860.0000000000005" y="170.00000000000045" as="targetPoint" />
          </mxGeometry>
        </mxCell>
        <mxCell id="QeJ1SCM4byZtXH57LW_v-27" value="Обработать заявку" style="points=[[0.25,0,0],[0.5,0,0],[0.75,0,0],[1,0.25,0],[1,0.5,0],[1,0.75,0],[0.75,1,0],[0.5,1,0],[0.25,1,0],[0,0.75,0],[0,0.5,0],[0,0.25,0]];shape=mxgraph.bpmn.task;whiteSpace=wrap;rectStyle=rounded;size=10;html=1;container=1;expand=0;collapsible=0;taskMarker=businessRule;" vertex="1" parent="TaBurYHqSm6imL810wM_-5">
          <mxGeometry x="860" y="130" width="120" height="80" as="geometry" />
        </mxCell>
        <mxCell id="QeJ1SCM4byZtXH57LW_v-29" style="edgeStyle=orthogonalEdgeStyle;rounded=0;orthogonalLoop=1;jettySize=auto;html=1;entryX=0;entryY=0.5;entryDx=0;entryDy=0;entryPerimeter=0;" edge="1" parent="TaBurYHqSm6imL810wM_-5" source="QeJ1SCM4byZtXH57LW_v-27" target="QeJ1SCM4byZtXH57LW_v-32">
          <mxGeometry relative="1" as="geometry">
            <mxPoint x="1040" y="170" as="targetPoint" />
          </mxGeometry>
        </mxCell>
        <mxCell id="QeJ1SCM4byZtXH57LW_v-32" value="Прислать данные о заявке в логистику" style="points=[[0.25,0,0],[0.5,0,0],[0.75,0,0],[1,0.25,0],[1,0.5,0],[1,0.75,0],[0.75,1,0],[0.5,1,0],[0.25,1,0],[0,0.75,0],[0,0.5,0],[0,0.25,0]];shape=mxgraph.bpmn.task;whiteSpace=wrap;rectStyle=rounded;size=10;html=1;container=1;expand=0;collapsible=0;taskMarker=send;" vertex="1" parent="TaBurYHqSm6imL810wM_-5">
          <mxGeometry x="1055" y="130" width="120" height="80" as="geometry" />
        </mxCell>
        <mxCell id="QeJ1SCM4byZtXH57LW_v-43" style="edgeStyle=orthogonalEdgeStyle;rounded=0;orthogonalLoop=1;jettySize=auto;html=1;entryX=0;entryY=0.5;entryDx=0;entryDy=0;entryPerimeter=0;" edge="1" parent="TaBurYHqSm6imL810wM_-5" source="QeJ1SCM4byZtXH57LW_v-32" target="QeJ1SCM4byZtXH57LW_v-45">
          <mxGeometry relative="1" as="geometry">
            <mxPoint x="1230" y="169.99999999999955" as="targetPoint" />
          </mxGeometry>
        </mxCell>
        <mxCell id="QeJ1SCM4byZtXH57LW_v-45" value="Отправить сообщение пользователю с информацией о курьере за один день до доставки" style="points=[[0.25,0,0],[0.5,0,0],[0.75,0,0],[1,0.25,0],[1,0.5,0],[1,0.75,0],[0.75,1,0],[0.5,1,0],[0.25,1,0],[0,0.75,0],[0,0.5,0],[0,0.25,0]];shape=mxgraph.bpmn.task;whiteSpace=wrap;rectStyle=rounded;size=10;html=1;container=1;expand=0;collapsible=0;taskMarker=send;" vertex="1" parent="TaBurYHqSm6imL810wM_-5">
          <mxGeometry x="1230" y="125" width="150" height="90" as="geometry" />
        </mxCell>
        <mxCell id="TaBurYHqSm6imL810wM_-13" value="" style="dashed=1;dashPattern=8 4;endArrow=blockThin;endFill=1;startArrow=oval;startFill=0;endSize=6;startSize=4;html=1;rounded=0;exitX=0.5;exitY=1;exitDx=0;exitDy=0;exitPerimeter=0;entryX=0.5;entryY=0;entryDx=0;entryDy=0;entryPerimeter=0;" parent="1" target="TaBurYHqSm6imL810wM_-10" edge="1">
          <mxGeometry width="160" relative="1" as="geometry">
            <mxPoint x="340.0000000000002" y="300" as="sourcePoint" />
            <mxPoint x="440" y="400" as="targetPoint" />
          </mxGeometry>
        </mxCell>
        <mxCell id="TaBurYHqSm6imL810wM_-43" value="" style="dashed=1;dashPattern=8 4;endArrow=blockThin;endFill=1;startArrow=oval;startFill=0;endSize=6;startSize=4;html=1;rounded=0;exitX=0.5;exitY=0;exitDx=0;exitDy=0;exitPerimeter=0;entryX=0.5;entryY=1;entryDx=0;entryDy=0;entryPerimeter=0;" parent="1" target="TaBurYHqSm6imL810wM_-40" edge="1">
          <mxGeometry width="160" relative="1" as="geometry">
            <mxPoint x="830" y="560.0000000000005" as="sourcePoint" />
            <mxPoint x="960" y="400" as="targetPoint" />
          </mxGeometry>
        </mxCell>
        <mxCell id="QeJ1SCM4byZtXH57LW_v-8" value="" style="dashed=1;dashPattern=8 4;endArrow=blockThin;endFill=1;startArrow=oval;startFill=0;endSize=6;startSize=4;html=1;rounded=0;exitX=0.25;exitY=0;exitDx=0;exitDy=0;exitPerimeter=0;entryX=0;entryY=0.5;entryDx=0;entryDy=0;entryPerimeter=0;" edge="1" parent="1" source="QeJ1SCM4byZtXH57LW_v-3" target="QeJ1SCM4byZtXH57LW_v-6">
          <mxGeometry width="160" relative="1" as="geometry">
            <mxPoint x="1020" y="510" as="sourcePoint" />
            <mxPoint x="960" y="270" as="targetPoint" />
          </mxGeometry>
        </mxCell>
        <mxCell id="QeJ1SCM4byZtXH57LW_v-25" value="" style="dashed=1;dashPattern=8 4;endArrow=blockThin;endFill=1;startArrow=oval;startFill=0;endSize=6;startSize=4;html=1;rounded=0;exitX=0.5;exitY=1;exitDx=0;exitDy=0;exitPerimeter=0;entryX=0.5;entryY=0;entryDx=0;entryDy=0;entryPerimeter=0;" edge="1" parent="1" source="QeJ1SCM4byZtXH57LW_v-13">
          <mxGeometry width="160" relative="1" as="geometry">
            <mxPoint x="1130" y="470" as="sourcePoint" />
            <mxPoint x="1160.0000000000005" y="560.0000000000005" as="targetPoint" />
          </mxGeometry>
        </mxCell>
        <mxCell id="QeJ1SCM4byZtXH57LW_v-49" value="" style="dashed=1;dashPattern=8 4;endArrow=blockThin;endFill=1;startArrow=oval;startFill=0;endSize=6;startSize=4;html=1;rounded=0;exitX=0.25;exitY=0;exitDx=0;exitDy=0;exitPerimeter=0;entryX=0.5;entryY=1;entryDx=0;entryDy=0;entryPerimeter=0;" edge="1" parent="1" source="QeJ1SCM4byZtXH57LW_v-45" target="QeJ1SCM4byZtXH57LW_v-37">
          <mxGeometry width="160" relative="1" as="geometry">
            <mxPoint x="1470" y="480" as="sourcePoint" />
            <mxPoint x="1630" y="480" as="targetPoint" />
          </mxGeometry>
        </mxCell>
        <mxCell id="QeJ1SCM4byZtXH57LW_v-50" value="Логистика" style="swimlane;startSize=20;horizontal=0;html=1;whiteSpace=wrap;" vertex="1" parent="1">
          <mxGeometry x="1280" y="-250" width="320" height="120" as="geometry" />
        </mxCell>
        <mxCell id="QeJ1SCM4byZtXH57LW_v-51" value="" style="dashed=1;dashPattern=8 4;endArrow=blockThin;endFill=1;startArrow=oval;startFill=0;endSize=6;startSize=4;html=1;rounded=0;entryX=0.5;entryY=0;entryDx=0;entryDy=0;entryPerimeter=0;" edge="1" parent="1" target="QeJ1SCM4byZtXH57LW_v-34">
          <mxGeometry width="160" relative="1" as="geometry">
            <mxPoint x="1475" y="-130" as="sourcePoint" />
            <mxPoint x="1900" y="-110" as="targetPoint" />
          </mxGeometry>
        </mxCell>
        <mxCell id="QeJ1SCM4byZtXH57LW_v-57" value="" style="dashed=1;dashPattern=8 4;endArrow=blockThin;endFill=1;startArrow=oval;startFill=0;endSize=6;startSize=4;html=1;rounded=0;exitX=0.25;exitY=1;exitDx=0;exitDy=0;exitPerimeter=0;entryX=0.5;entryY=0;entryDx=0;entryDy=0;entryPerimeter=0;" edge="1" parent="1" source="QeJ1SCM4byZtXH57LW_v-52" target="QeJ1SCM4byZtXH57LW_v-54">
          <mxGeometry width="160" relative="1" as="geometry">
            <mxPoint x="1550" y="170" as="sourcePoint" />
            <mxPoint x="1710" y="170" as="targetPoint" />
          </mxGeometry>
        </mxCell>
        <mxCell id="QeJ1SCM4byZtXH57LW_v-62" value="" style="dashed=1;dashPattern=8 4;endArrow=blockThin;endFill=1;startArrow=oval;startFill=0;endSize=6;startSize=4;html=1;rounded=0;exitX=0.25;exitY=0;exitDx=0;exitDy=0;exitPerimeter=0;" edge="1" parent="1" source="QeJ1SCM4byZtXH57LW_v-32">
          <mxGeometry width="160" relative="1" as="geometry">
            <mxPoint x="1355" y="560" as="sourcePoint" />
            <mxPoint x="1320" y="-130" as="targetPoint" />
          </mxGeometry>
        </mxCell>
        <mxCell id="QeJ1SCM4byZtXH57LW_v-37" value="" style="points=[[0.145,0.145,0],[0.5,0,0],[0.855,0.145,0],[1,0.5,0],[0.855,0.855,0],[0.5,1,0],[0.145,0.855,0],[0,0.5,0]];shape=mxgraph.bpmn.event;html=1;verticalLabelPosition=bottom;labelBackgroundColor=#ffffff;verticalAlign=top;align=center;perimeter=ellipsePerimeter;outlineConnect=0;aspect=fixed;outline=boundInt;symbol=timer;" vertex="1" parent="1">
          <mxGeometry x="1330" y="300" width="50" height="50" as="geometry" />
        </mxCell>
        <mxCell id="QeJ1SCM4byZtXH57LW_v-56" style="edgeStyle=orthogonalEdgeStyle;rounded=0;orthogonalLoop=1;jettySize=auto;html=1;entryX=0;entryY=0.5;entryDx=0;entryDy=0;entryPerimeter=0;" edge="1" parent="1" source="QeJ1SCM4byZtXH57LW_v-37" target="QeJ1SCM4byZtXH57LW_v-54">
          <mxGeometry relative="1" as="geometry" />
        </mxCell>
        <mxCell id="QeJ1SCM4byZtXH57LW_v-38" style="edgeStyle=orthogonalEdgeStyle;rounded=0;orthogonalLoop=1;jettySize=auto;html=1;" edge="1" parent="1" source="QeJ1SCM4byZtXH57LW_v-13" target="QeJ1SCM4byZtXH57LW_v-37">
          <mxGeometry relative="1" as="geometry" />
        </mxCell>
        <mxCell id="QeJ1SCM4byZtXH57LW_v-73" value="" style="dashed=1;dashPattern=8 4;endArrow=blockThin;endFill=1;startArrow=oval;startFill=0;endSize=6;startSize=4;html=1;rounded=0;exitX=0.25;exitY=0;exitDx=0;exitDy=0;exitPerimeter=0;entryX=0.75;entryY=1;entryDx=0;entryDy=0;entryPerimeter=0;" edge="1" parent="1" source="QeJ1SCM4byZtXH57LW_v-61" target="QeJ1SCM4byZtXH57LW_v-52">
          <mxGeometry width="160" relative="1" as="geometry">
            <mxPoint x="1720" y="150" as="sourcePoint" />
            <mxPoint x="1880" y="150" as="targetPoint" />
          </mxGeometry>
        </mxCell>
        <mxCell id="QeJ1SCM4byZtXH57LW_v-75" value="" style="shape=mxgraph.bpmn.data;labelPosition=center;verticalLabelPosition=bottom;align=center;verticalAlign=top;size=15;html=1;" vertex="1" parent="1">
          <mxGeometry x="1870" y="-140" width="40" height="60" as="geometry" />
        </mxCell>
        <mxCell id="QeJ1SCM4byZtXH57LW_v-76" value="" style="edgeStyle=elbowEdgeStyle;fontSize=12;html=1;endFill=0;startFill=0;endSize=6;startSize=6;dashed=1;dashPattern=1 4;endArrow=none;startArrow=none;rounded=0;exitX=0.75;exitY=0;exitDx=0;exitDy=0;exitPerimeter=0;entryX=0.016;entryY=0.583;entryDx=0;entryDy=0;entryPerimeter=0;" edge="1" parent="1" source="QeJ1SCM4byZtXH57LW_v-74" target="QeJ1SCM4byZtXH57LW_v-75">
          <mxGeometry width="160" relative="1" as="geometry">
            <mxPoint x="1880" y="-30" as="sourcePoint" />
            <mxPoint x="2040" y="-30" as="targetPoint" />
            <Array as="points">
              <mxPoint x="1840" y="-100" />
            </Array>
          </mxGeometry>
        </mxCell>
        <mxCell id="QeJ1SCM4byZtXH57LW_v-77" value="Договор между клиентом и банком" style="text;html=1;strokeColor=none;fillColor=none;align=center;verticalAlign=middle;whiteSpace=wrap;rounded=0;" vertex="1" parent="1">
          <mxGeometry x="1920" y="-140" width="120" height="40" as="geometry" />
        </mxCell>
        <mxCell id="QeJ1SCM4byZtXH57LW_v-85" value="" style="dashed=1;dashPattern=8 4;endArrow=blockThin;endFill=1;startArrow=oval;startFill=0;endSize=6;startSize=4;html=1;rounded=0;exitX=0.5;exitY=1;exitDx=0;exitDy=0;exitPerimeter=0;entryX=0.5;entryY=0;entryDx=0;entryDy=0;entryPerimeter=0;" edge="1" parent="1" source="QeJ1SCM4byZtXH57LW_v-81" target="QeJ1SCM4byZtXH57LW_v-83">
          <mxGeometry width="160" relative="1" as="geometry">
            <mxPoint x="1850" y="150" as="sourcePoint" />
            <mxPoint x="2010" y="150" as="targetPoint" />
          </mxGeometry>
        </mxCell>
      </root>
    </mxGraphModel>
  </diagram>
</mxfile>
